{
DisplayStrings = (
"`"
);
date = "2013-05-07 17:01:52 +0000";
designer = "Shinji Pons";
designerURL = www.shinjipons.com;
familyName = "Modulo 12";
fontMaster = (
{
alignmentZones = (
"{128, 129}",
"{128, 129}",
"{128, 129}",
"{0, -2}",
"{0, -2}"
);
ascender = 128;
capHeight = 128;
customParameters = (
{
name = familyName;
value = "Modulo 12";
}
);
descender = 0;
guideLines = (
{
position = "{-18, 58}";
},
{
angle = 90;
position = "{78, 139}";
},
{
position = "{-18, 70}";
},
{
angle = 90;
position = "{20, 143}";
},
{
angle = 90;
position = "{124, 136}";
},
{
position = "{-19, 116}";
},
{
position = "{-20, 12}";
},
{
angle = 90;
position = "{136, -22}";
},
{
angle = 90;
position = "{8, -30}";
},
{
angle = 90;
position = "{66, 148}";
}
);
horizontalStems = (
12
);
id = "940E2F63-624A-4C3D-A909-721782B4CF41";
verticalStems = (
12
);
weightValue = 12;
widthValue = 128;
xHeight = 128;
}
);
glyphs = (
{
glyphname = A;
lastChange = "2013-06-29 13:17:18 +0100";
layers = (
{
guideLines = (
{
position = "{-11, 64}";
showMeasurement = 1;
},
{
angle = 90;
position = "{50, -8}";
showMeasurement = 1;
}
);
layerId = "940E2F63-624A-4C3D-A909-721782B4CF41";
name = Regular;
paths = (
{
closed = 1;
nodes = (
"8 12 LINE",
"20 12 LINE",
"20 58 LINE",
"8 58 LINE"
);
},
{
closed = 1;
nodes = (
"124 12 LINE",
"136 12 LINE",
"136 116 LINE",
"124 116 LINE"
);
}
);
width = 144;
}
);
unicode = 0041;
},
{
glyphname = B;
lastChange = "2013-06-29 13:17:27 +0100";
layers = (
{
layerId = "940E2F63-624A-4C3D-A909-721782B4CF41";
name = Regular;
paths = (
{
closed = 1;
nodes = (
"8 12 LINE",
"20 12 LINE",
"20 116 LINE",
"8 116 LINE"
);
},
{
closed = 1;
nodes = (
"124 12 LINE",
"136 12 LINE",
"136 116 LINE",
"124 116 LINE"
);
}
);
width = 144;
}
);
unicode = 0042;
},
{
glyphname = C;
lastChange = "2013-06-29 13:17:35 +0100";
layers = (
{
layerId = "940E2F63-624A-4C3D-A909-721782B4CF41";
name = Regular;
paths = (
{
closed = 1;
nodes = (
"8 12 LINE",
"20 12 LINE",
"20 116 LINE",
"8 116 LINE"
);
}
);
width = 144;
}
);
unicode = 0043;
},
{
glyphname = D;
lastChange = "2013-06-29 13:17:44 +0100";
layers = (
{
layerId = "940E2F63-624A-4C3D-A909-721782B4CF41";
name = Regular;
paths = (
{
closed = 1;
nodes = (
"8 12 LINE",
"20 12 LINE",
"20 58 LINE",
"8 58 LINE"
);
},
{
closed = 1;
nodes = (
"124 12 LINE",
"136 12 LINE",
"136 116 LINE",
"124 116 LINE"
);
}
);
width = 144;
}
);
unicode = 0044;
},
{
glyphname = E;
lastChange = "2013-06-29 13:17:53 +0100";
layers = (
{
layerId = "940E2F63-624A-4C3D-A909-721782B4CF41";
name = Regular;
paths = (
{
closed = 1;
nodes = (
"8 12 LINE",
"20 12 LINE",
"20 116 LINE",
"8 116 LINE"
);
},
{
closed = 1;
nodes = (
"124 70 LINE",
"136 70 LINE",
"136 116 LINE",
"124 116 LINE"
);
}
);
width = 144;
}
);
unicode = 0045;
},
{
glyphname = F;
lastChange = "2013-06-29 13:18:02 +0100";
layers = (
{
layerId = "940E2F63-624A-4C3D-A909-721782B4CF41";
name = Regular;
paths = (
{
closed = 1;
nodes = (
"8 12 LINE",
"20 12 LINE",
"20 116 LINE",
"8 116 LINE"
);
}
);
width = 144;
}
);
unicode = 0046;
},
{
glyphname = H;
lastChange = "2013-06-29 13:18:10 +0100";
layers = (
{
layerId = "940E2F63-624A-4C3D-A909-721782B4CF41";
name = Regular;
paths = (
{
closed = 1;
nodes = (
"8 12 LINE",
"20 12 LINE",
"20 116 LINE",
"8 116 LINE"
);
},
{
closed = 1;
nodes = (
"124 12 LINE",
"136 12 LINE",
"136 116 LINE",
"124 116 LINE"
);
}
);
width = 144;
}
);
unicode = 0048;
},
{
glyphname = I;
lastChange = "2013-06-29 13:18:20 +0100";
layers = (
{
layerId = "940E2F63-624A-4C3D-A909-721782B4CF41";
name = Regular;
paths = (
{
closed = 1;
nodes = (
"66 12 LINE",
"78 12 LINE",
"78 116 LINE",
"66 116 LINE"
);
}
);
width = 144;
}
);
unicode = 0049;
},
{
glyphname = J;
lastChange = "2013-06-29 13:18:27 +0100";
layers = (
{
layerId = "940E2F63-624A-4C3D-A909-721782B4CF41";
name = Regular;
paths = (
{
closed = 1;
nodes = (
"124 12 LINE",
"136 12 LINE",
"136 116 LINE",
"124 116 LINE"
);
}
);
width = 144;
}
);
unicode = 004A;
},
{
glyphname = K;
lastChange = "2013-06-29 13:18:36 +0100";
layers = (
{
layerId = "940E2F63-624A-4C3D-A909-721782B4CF41";
name = Regular;
paths = (
{
closed = 1;
nodes = (
"8 12 LINE",
"20 12 LINE",
"20 116 LINE",
"8 116 LINE"
);
},
{
closed = 1;
nodes = (
"66 70 LINE",
"78 70 LINE",
"78 116 LINE",
"66 116 LINE"
);
},
{
closed = 1;
nodes = (
"124 12 LINE",
"136 12 LINE",
"136 58 LINE",
"124 58 LINE"
);
}
);
width = 144;
}
);
unicode = 004B;
},
{
glyphname = L;
lastChange = "2013-06-29 13:18:42 +0100";
layers = (
{
layerId = "940E2F63-624A-4C3D-A909-721782B4CF41";
name = Regular;
paths = (
{
closed = 1;
nodes = (
"8 12 LINE",
"20 12 LINE",
"20 116 LINE",
"8 116 LINE"
);
}
);
width = 144;
}
);
unicode = 004C;
},
{
glyphname = M;
lastChange = "2013-06-29 13:18:48 +0100";
layers = (
{
layerId = "940E2F63-624A-4C3D-A909-721782B4CF41";
name = Regular;
paths = (
{
closed = 1;
nodes = (
"8 12 LINE",
"20 12 LINE",
"20 116 LINE",
"8 116 LINE"
);
},
{
closed = 1;
nodes = (
"66 12 LINE",
"78 12 LINE",
"78 116 LINE",
"66 116 LINE"
);
},
{
closed = 1;
nodes = (
"124 12 LINE",
"136 12 LINE",
"136 116 LINE",
"124 116 LINE"
);
}
);
width = 144;
}
);
unicode = 004D;
},
{
glyphname = N;
lastChange = "2013-06-29 13:18:53 +0100";
layers = (
{
layerId = "940E2F63-624A-4C3D-A909-721782B4CF41";
name = Regular;
paths = (
{
closed = 1;
nodes = (
"8 12 LINE",
"20 12 LINE",
"20 116 LINE",
"8 116 LINE"
);
},
{
closed = 1;
nodes = (
"66 12 LINE",
"78 12 LINE",
"78 116 LINE",
"66 116 LINE"
);
},
{
closed = 1;
nodes = (
"124 12 LINE",
"136 12 LINE",
"136 116 LINE",
"124 116 LINE"
);
}
);
width = 144;
}
);
unicode = 004E;
},
{
glyphname = O;
lastChange = "2013-06-29 13:19:02 +0100";
layers = (
{
layerId = "940E2F63-624A-4C3D-A909-721782B4CF41";
name = Regular;
paths = (
{
closed = 1;
nodes = (
"8 12 LINE",
"20 12 LINE",
"20 116 LINE",
"8 116 LINE"
);
},
{
closed = 1;
nodes = (
"124 12 LINE",
"136 12 LINE",
"136 116 LINE",
"124 116 LINE"
);
}
);
width = 144;
}
);
unicode = 004F;
},
{
glyphname = P;
lastChange = "2013-06-29 13:19:11 +0100";
layers = (
{
layerId = "940E2F63-624A-4C3D-A909-721782B4CF41";
name = Regular;
paths = (
{
closed = 1;
nodes = (
"8 12 LINE",
"20 12 LINE",
"20 116 LINE",
"8 116 LINE"
);
},
{
closed = 1;
nodes = (
"124 70 LINE",
"136 70 LINE",
"136 116 LINE",
"124 116 LINE"
);
}
);
width = 144;
}
);
unicode = 0050;
},
{
glyphname = Q;
lastChange = "2013-06-29 13:20:49 +0100";
layers = (
{
layerId = "940E2F63-624A-4C3D-A909-721782B4CF41";
name = Regular;
paths = (
{
closed = 1;
nodes = (
"8 12 LINE",
"20 12 LINE",
"20 116 LINE",
"8 116 LINE"
);
},
{
closed = 1;
nodes = (
"124 12 LINE",
"136 12 LINE",
"136 116 LINE",
"124 116 LINE"
);
},
{
closed = 1;
nodes = (
"66 12 LINE",
"78 12 LINE",
"78 58 LINE",
"66 58 LINE"
);
}
);
width = 144;
}
);
unicode = 0051;
},
{
glyphname = R;
lastChange = "2013-06-29 13:20:59 +0100";
layers = (
{
layerId = "940E2F63-624A-4C3D-A909-721782B4CF41";
name = Regular;
paths = (
{
closed = 1;
nodes = (
"8 12 LINE",
"20 12 LINE",
"20 116 LINE",
"8 116 LINE"
);
},
{
closed = 1;
nodes = (
"66 12 LINE",
"78 12 LINE",
"78 58 LINE",
"66 58 LINE"
);
},
{
closed = 1;
nodes = (
"124 70 LINE",
"136 70 LINE",
"136 116 LINE",
"124 116 LINE"
);
}
);
width = 144;
}
);
unicode = 0052;
},
{
glyphname = S;
lastChange = "2013-06-29 13:21:22 +0100";
layers = (
{
layerId = "940E2F63-624A-4C3D-A909-721782B4CF41";
name = Regular;
paths = (
{
closed = 1;
nodes = (
"8 70 LINE",
"20 70 LINE",
"20 116 LINE",
"8 116 LINE"
);
},
{
closed = 1;
nodes = (
"124 12 LINE",
"136 12 LINE",
"136 58 LINE",
"124 58 LINE"
);
}
);
width = 144;
}
);
unicode = 0053;
},
{
glyphname = T;
lastChange = "2013-06-29 13:21:47 +0100";
layers = (
{
layerId = "940E2F63-624A-4C3D-A909-721782B4CF41";
name = Regular;
paths = (
{
closed = 1;
nodes = (
"66 11 LINE",
"78 11 LINE",
"78 116 LINE",
"66 116 LINE"
);
}
);
width = 144;
}
);
unicode = 0054;
},
{
glyphname = U;
lastChange = "2013-06-29 13:21:54 +0100";
layers = (
{
layerId = "940E2F63-624A-4C3D-A909-721782B4CF41";
name = Regular;
paths = (
{
closed = 1;
nodes = (
"8 12 LINE",
"20 12 LINE",
"20 116 LINE",
"8 116 LINE"
);
},
{
closed = 1;
nodes = (
"124 12 LINE",
"136 12 LINE",
"136 116 LINE",
"124 116 LINE"
);
}
);
width = 144;
}
);
unicode = 0055;
},
{
glyphname = V;
lastChange = "2013-06-29 13:22:03 +0100";
layers = (
{
layerId = "940E2F63-624A-4C3D-A909-721782B4CF41";
name = Regular;
paths = (
{
closed = 1;
nodes = (
"8 12 LINE",
"20 12 LINE",
"20 116 LINE",
"8 116 LINE"
);
},
{
closed = 1;
nodes = (
"66 12 LINE",
"78 12 LINE",
"78 58 LINE",
"66 58 LINE"
);
},
{
closed = 1;
nodes = (
"124 70 LINE",
"136 70 LINE",
"136 116 LINE",
"124 116 LINE"
);
}
);
width = 144;
}
);
unicode = 0056;
},
{
glyphname = X;
lastChange = "2013-06-29 13:22:21 +0100";
layers = (
{
layerId = "940E2F63-624A-4C3D-A909-721782B4CF41";
name = Regular;
paths = (
{
closed = 1;
nodes = (
"8 70 LINE",
"20 70 LINE",
"20 116 LINE",
"8 116 LINE"
);
},
{
closed = 1;
nodes = (
"66 12 LINE",
"78 12 LINE",
"78 116 LINE",
"66 116 LINE"
);
},
{
closed = 1;
nodes = (
"124 12 LINE",
"136 12 LINE",
"136 58 LINE",
"124 58 LINE"
);
}
);
width = 144;
}
);
unicode = 0058;
},
{
glyphname = Y;
lastChange = "2013-06-29 13:23:15 +0100";
layers = (
{
layerId = "940E2F63-624A-4C3D-A909-721782B4CF41";
name = Regular;
paths = (
{
closed = 1;
nodes = (
"8 70 LINE",
"20 70 LINE",
"20 116 LINE",
"8 116 LINE"
);
},
{
closed = 1;
nodes = (
"124 12 LINE",
"136 12 LINE",
"136 116 LINE",
"124 116 LINE"
);
}
);
width = 144;
}
);
unicode = 0059;
},
{
glyphname = Z;
lastChange = "2013-06-29 13:23:27 +0100";
layers = (
{
layerId = "940E2F63-624A-4C3D-A909-721782B4CF41";
name = Regular;
paths = (
{
closed = 1;
nodes = (
"124 70 LINE",
"136 70 LINE",
"136 116 LINE",
"124 116 LINE"
);
},
{
closed = 1;
nodes = (
"8 12 LINE",
"20 12 LINE",
"20 58 LINE",
"8 58 LINE"
);
}
);
width = 144;
}
);
unicode = 005A;
},
{
glyphname = one;
lastChange = "2013-06-29 13:23:45 +0100";
layers = (
{
layerId = "940E2F63-624A-4C3D-A909-721782B4CF41";
name = Regular;
paths = (
{
closed = 1;
nodes = (
"66 12 LINE",
"78 12 LINE",
"78 116 LINE",
"66 116 LINE"
);
}
);
width = 144;
}
);
unicode = 0031;
},
{
glyphname = three;
lastChange = "2013-06-29 13:23:54 +0100";
layers = (
{
layerId = "940E2F63-624A-4C3D-A909-721782B4CF41";
name = Regular;
paths = (
{
closed = 1;
nodes = (
"124 12 LINE",
"136 12 LINE",
"136 116 LINE",
"124 116 LINE"
);
}
);
width = 144;
}
);
unicode = 0033;
},
{
glyphname = four;
lastChange = "2013-06-29 13:24:03 +0100";
layers = (
{
layerId = "940E2F63-624A-4C3D-A909-721782B4CF41";
name = Regular;
paths = (
{
closed = 1;
nodes = (
"8 70 LINE",
"20 70 LINE",
"20 116 LINE",
"8 116 LINE"
);
},
{
closed = 1;
nodes = (
"124 12 LINE",
"136 12 LINE",
"136 116 LINE",
"124 116 LINE"
);
}
);
width = 144;
}
);
unicode = 0034;
},
{
glyphname = seven;
lastChange = "2013-06-29 13:24:13 +0100";
layers = (
{
layerId = "940E2F63-624A-4C3D-A909-721782B4CF41";
name = Regular;
paths = (
{
closed = 1;
nodes = (
"124 70 LINE",
"136 70 LINE",
"136 116 LINE",
"124 116 LINE"
);
},
{
closed = 1;
nodes = (
"66 12 LINE",
"78 12 LINE",
"78 58 LINE",
"66 58 LINE"
);
}
);
width = 144;
}
);
unicode = 0037;
},
{
glyphname = eight;
lastChange = "2013-06-29 13:24:21 +0100";
layers = (
{
layerId = "940E2F63-624A-4C3D-A909-721782B4CF41";
name = Regular;
paths = (
{
closed = 1;
nodes = (
"8 12 LINE",
"20 12 LINE",
"20 116 LINE",
"8 116 LINE"
);
},
{
closed = 1;
nodes = (
"124 12 LINE",
"136 12 LINE",
"136 116 LINE",
"124 116 LINE"
);
}
);
width = 144;
}
);
unicode = 0038;
},
{
glyphname = backslash;
lastChange = "2013-06-29 13:24:30 +0100";
layers = (
{
layerId = "940E2F63-624A-4C3D-A909-721782B4CF41";
name = Regular;
paths = (
{
closed = 1;
nodes = (
"8 12 LINE",
"20 12 LINE",
"20 116 LINE",
"8 116 LINE"
);
},
{
closed = 1;
nodes = (
"66 12 LINE",
"78 12 LINE",
"78 116 LINE",
"66 116 LINE"
);
},
{
closed = 1;
nodes = (
"124 12 LINE",
"136 12 LINE",
"136 116 LINE",
"124 116 LINE"
);
}
);
width = 144;
}
);
unicode = 005C;
},
{
glyphname = exclam;
lastChange = "2013-06-29 13:24:44 +0100";
layers = (
{
layerId = "940E2F63-624A-4C3D-A909-721782B4CF41";
name = Regular;
paths = (
{
closed = 1;
nodes = (
"136 116 LINE",
"124 116 LINE",
"124 70 LINE",
"136 70 LINE"
);
},
{
closed = 1;
nodes = (
"78 116 LINE",
"66 116 LINE",
"66 70 LINE",
"78 70 LINE"
);
},
{
closed = 1;
nodes = (
"20 116 LINE",
"8 116 LINE",
"8 70 LINE",
"20 70 LINE"
);
}
);
width = 144;
}
);
unicode = 0021;
},
{
glyphname = numbersign;
lastChange = "2013-06-29 13:24:49 +0100";
layers = (
{
layerId = "940E2F63-624A-4C3D-A909-721782B4CF41";
name = Regular;
paths = (
{
closed = 1;
nodes = (
"8 12 LINE",
"20 12 LINE",
"20 116 LINE",
"8 116 LINE"
);
},
{
closed = 1;
nodes = (
"66 12 LINE",
"78 12 LINE",
"78 116 LINE",
"66 116 LINE"
);
},
{
closed = 1;
nodes = (
"124 12 LINE",
"136 12 LINE",
"136 116 LINE",
"124 116 LINE"
);
}
);
width = 144;
}
);
unicode = 0023;
},
{
glyphname = question;
lastChange = "2013-06-29 13:24:56 +0100";
layers = (
{
layerId = "940E2F63-624A-4C3D-A909-721782B4CF41";
name = Regular;
paths = (
{
closed = 1;
nodes = (
"124 70 LINE",
"136 70 LINE",
"136 116 LINE",
"124 116 LINE"
);
}
);
width = 144;
}
);
unicode = 003F;
},
{
glyphname = braceleft;
lastChange = "2013-06-29 13:25:07 +0100";
layers = (
{
layerId = "940E2F63-624A-4C3D-A909-721782B4CF41";
name = Regular;
paths = (
{
closed = 1;
nodes = (
"66 12 LINE",
"78 12 LINE",
"78 116 LINE",
"66 116 LINE"
);
}
);
width = 144;
}
);
unicode = 007B;
},
{
color = 0;
glyphname = dollar;
lastChange = "2013-12-01 23:08:34 +0000";
layers = (
{
components = (
{
name = s;
transform = "{1, 0, 0, 1, 0, 0}";
}
);
layerId = "940E2F63-624A-4C3D-A909-721782B4CF41";
name = Regular;
paths = (
{
closed = 1;
nodes = (
"66 12 LINE",
"78 12 LINE",
"78 116 LINE",
"66 116 LINE"
);
}
);
width = 144;
}
);
unicode = 0024;
},
{
color = 0;
glyphname = sterling;
lastChange = "2013-12-01 23:08:55 +0000";
layers = (
{
layerId = "940E2F63-624A-4C3D-A909-721782B4CF41";
name = Regular;
paths = (
{
closed = 1;
nodes = (
"66 70 LINE",
"78 70 LINE",
"78 116 LINE",
"66 116 LINE"
);
},
{
closed = 1;
nodes = (
"8 12 LINE",
"20 12 LINE",
"20 58 LINE",
"8 58 LINE"
);
}
);
width = 144;
}
);
unicode = 00A3;
},
{
color = 0;
glyphname = percent;
lastChange = "2013-12-01 23:09:28 +0000";
layers = (
{
layerId = "940E2F63-624A-4C3D-A909-721782B4CF41";
name = Regular;
paths = (
{
closed = 1;
nodes = (
"124 70 LINE",
"136 70 LINE",
"136 116 LINE",
"124 116 LINE"
);
},
{
closed = 1;
nodes = (
"8 12 LINE",
"20 12 LINE",
"20 58 LINE",
"8 58 LINE"
);
}
);
width = 144;
}
);
unicode = 0025;
},
{
glyphname = plus;
lastChange = "2013-06-29 13:25:29 +0100";
layers = (
{
layerId = "940E2F63-624A-4C3D-A909-721782B4CF41";
name = Regular;
paths = (
{
closed = 1;
nodes = (
"66 12 LINE",
"78 12 LINE",
"78 116 LINE",
"66 116 LINE"
);
}
);
width = 144;
}
);
unicode = 002B;
},
{
glyphname = ampersand;
lastChange = "2013-06-29 13:25:40 +0100";
layers = (
{
layerId = "940E2F63-624A-4C3D-A909-721782B4CF41";
name = Regular;
paths = (
{
closed = 1;
nodes = (
"124 70 LINE",
"136 70 LINE",
"136 116 LINE",
"124 116 LINE"
);
},
{
closed = 1;
nodes = (
"66 70 LINE",
"78 70 LINE",
"78 116 LINE",
"66 116 LINE"
);
},
{
closed = 1;
nodes = (
"8 12 LINE",
"20 12 LINE",
"20 58 LINE",
"8 58 LINE"
);
}
);
width = 144;
}
);
unicode = 0026;
},
{
color = 0;
glyphname = asciicircum;
lastChange = "2013-12-01 23:09:47 +0000";
layers = (
{
layerId = "940E2F63-624A-4C3D-A909-721782B4CF41";
name = Regular;
paths = (
{
closed = 1;
nodes = (
"66 70 LINE",
"78 70 LINE",
"78 116 LINE",
"66 116 LINE"
);
},
{
closed = 1;
nodes = (
"8 12 LINE",
"20 12 LINE",
"20 58 LINE",
"8 58 LINE"
);
},
{
closed = 1;
nodes = (
"124 12 LINE",
"136 12 LINE",
"136 58 LINE",
"124 58 LINE"
);
}
);
width = 144;
}
);
unicode = 005E;
},
{
glyphname = degree;
lastChange = "2013-06-29 13:25:50 +0100";
layers = (
{
layerId = "940E2F63-624A-4C3D-A909-721782B4CF41";
name = Regular;
paths = (
{
closed = 1;
nodes = (
"20 116 LINE",
"8 116 LINE",
"8 70 LINE",
"20 70 LINE"
);
},
{
closed = 1;
nodes = (
"124 12 LINE",
"136 12 LINE",
"136 58 LINE",
"124 58 LINE"
);
},
{
closed = 1;
nodes = (
"78 116 LINE",
"66 116 LINE",
"66 70 LINE",
"78 70 LINE"
);
}
);
width = 144;
}
);
unicode = 00B0;
},
